<svg xmlns="http://www.w3.org/2000/svg" width="25" height="24" fill="none" viewBox="0 0 25 24">
  <path fill="#fff" d="M7 21V11H1v12h6v-2.4c1.5 1.6 4.1 2.4 6.2 2.4h6.5c1.1 0 2.1-.8 2.3-2l1.5-8.6c.3-1.5-.9-2.4-2.3-2.4H16V3.4C16 2.1 14.7 1 13.4 1S11 2.1 11 3.4c0 1.6-.5 3.1-1.4 4.4l-2.6 3"/>
  <path stroke="#D8D9E1" stroke-linecap="round" stroke-linejoin="round" stroke-miterlimit="10" stroke-width="2" d="M7 21V11H1v12h6v-2.4c1.5 1.6 4.1 2.4 6.2 2.4h6.5c1.1 0 2.1-.8 2.3-2l1.5-8.6c.3-1.5-.9-2.4-2.3-2.4H16V3.4C16 2.1 14.7 1 13.4 1S11 2.1 11 3.4c0 1.6-.5 3.1-1.4 4.4l-2.6 3"/>
</svg>
