<svg width="18" height="18" viewBox="0 0 18 18" fill="none" xmlns="http://www.w3.org/2000/svg">
<g clip-path="url(#clip0_0_10522)">
<path fill-rule="evenodd" clip-rule="evenodd" d="M3.76385 8.99996C3.76385 8.42836 3.8608 7.88036 4.03385 7.36636L1.00494 5.10156C0.414622 6.27516 0.0820312 7.59756 0.0820312 8.99996C0.0820312 10.4012 0.414213 11.7228 1.00371 12.8956L4.03099 10.6264C3.85958 10.1148 3.76385 9.56876 3.76385 8.99996Z" fill="#FBBC05"/>
<path fill-rule="evenodd" clip-rule="evenodd" d="M9.08197 3.8002C10.3502 3.8002 11.4956 4.2402 12.3956 4.9602L15.0138 2.4002C13.4183 1.0402 11.3729 0.200195 9.08197 0.200195C5.52534 0.200195 2.46861 2.1918 1.00488 5.1018L4.03379 7.3666C4.7317 5.2922 6.72111 3.8002 9.08197 3.8002Z" fill="#EA4335"/>
<path fill-rule="evenodd" clip-rule="evenodd" d="M9.08197 14.2002C6.72111 14.2002 4.7317 12.7082 4.03379 10.6338L1.00488 12.8982C2.46861 15.8086 5.52534 17.8002 9.08197 17.8002C11.2772 17.8002 13.3729 17.037 14.9459 15.607L12.0708 13.4306C11.2596 13.931 10.2381 14.2002 9.08197 14.2002Z" fill="#34A853"/>
<path fill-rule="evenodd" clip-rule="evenodd" d="M17.6729 9.00039C17.6729 8.48039 17.5911 7.92039 17.4684 7.40039H9.08203V10.8004H13.9093C13.6679 11.9596 13.0109 12.8508 12.0708 13.4308L14.9459 15.6072C16.5983 14.1056 17.6729 11.8688 17.6729 9.00039Z" fill="#4285F4"/>
</g>
<defs>
<clipPath id="clip0_0_10522">
<rect width="18" height="18" fill="white"/>
</clipPath>
</defs>
</svg>
