<svg width="17" height="18" viewBox="0 0 17 18" fill="none" xmlns="http://www.w3.org/2000/svg">
<path fill-rule="evenodd" clip-rule="evenodd" d="M11.2676 2.92218C11.9167 2.16438 12.4087 1.09331 12.2307 0C11.1699 0.066678 9.92985 0.680547 9.20632 1.48068C8.54677 2.20567 8.00469 3.28417 8.2164 4.3309C9.37615 4.36371 10.5731 3.73502 11.2676 2.92218ZM17 13.2065C16.5359 14.1421 16.3125 14.5601 15.7146 15.3889C14.8806 16.5457 13.7046 17.9861 12.2459 17.9967C10.9512 18.0094 10.6173 17.2294 8.85967 17.2389C7.10202 17.2474 6.7356 18.0115 5.4386 17.9999C3.98106 17.9882 2.86668 16.6885 2.03264 15.5317C-0.300808 12.2994 -0.546252 8.50514 0.892671 6.48681C1.91632 5.05376 3.53089 4.21552 5.04775 4.21552C6.59137 4.21552 7.56267 4.98603 8.84106 4.98603C10.0811 4.98603 10.836 4.21342 12.6216 4.21342C13.9733 4.21342 15.4052 4.88337 16.4242 6.03912C13.0834 7.70501 13.6243 12.0454 17 13.2065Z" fill="#0B0B0A"/>
</svg>
