<svg width="18" height="18" viewBox="0 0 18 18" fill="none" xmlns="http://www.w3.org/2000/svg">
<path d="M3.00007 1.16362L9.00007 7.16362L15.0001 1.18181C15.239 0.938715 15.5686 0.806897 15.9092 0.818169C16.593 0.862351 17.1377 1.40708 17.1819 2.0909C17.1852 2.41926 17.0537 2.73471 16.8182 2.96362L10.8001 8.99999L16.8182 15.0364C17.0537 15.2653 17.1852 15.5807 17.1819 15.9091C17.1377 16.5929 16.593 17.1376 15.9092 17.1818C15.5686 17.1931 15.239 17.0613 15.0001 16.8182L9.00007 10.8364L3.01825 16.8182C2.77934 17.0613 2.4497 17.1931 2.10916 17.1818C1.41189 17.1454 0.854613 16.5882 0.81825 15.8909C0.814977 15.5625 0.946432 15.2471 1.18189 15.0182L7.20007 8.99999L1.1637 2.96362C0.934795 2.73162 0.810068 2.41671 0.81825 2.0909C0.862432 1.40708 1.40716 0.862351 2.09098 0.818169C2.4288 0.802169 2.75807 0.92726 3.00007 1.16362Z" fill="#C3073F"/>
</svg>
