<svg width="38" height="14" viewBox="0 0 38 14" fill="none" xmlns="http://www.w3.org/2000/svg">
<path fill-rule="evenodd" clip-rule="evenodd" d="M37.4618 1.29306C37.2033 1.49174 36.9203 1.65252 36.6127 1.77541C36.4687 1.76836 36.3744 1.83268 36.3297 1.96834C36.1565 2.16977 35.9364 2.29839 35.6693 2.35422C35.5253 2.34718 35.431 2.41149 35.3863 2.54715C35.3541 2.62801 35.2912 2.66018 35.1977 2.64362C34.9926 2.66771 34.8353 2.76418 34.726 2.93303C33.1227 3.97812 31.4875 4.97497 29.8203 5.92355C29.6762 5.91651 29.5819 5.98083 29.5373 6.11649C29.505 6.19735 29.4422 6.22951 29.3486 6.21296C29.2045 6.20592 29.1102 6.27023 29.0656 6.4059C29.0333 6.48676 28.9705 6.51892 28.8769 6.50237C28.7328 6.49532 28.6385 6.55964 28.5939 6.6953C28.3898 6.84801 28.1697 6.97661 27.9335 7.08118C27.7284 7.10529 27.5711 7.20176 27.4618 7.37058C27.3298 7.50467 27.1726 7.60114 26.9901 7.65999C26.846 7.65295 26.7517 7.71729 26.7071 7.85293C26.503 8.00564 26.2829 8.13423 26.0467 8.2388C25.9027 8.23176 25.8083 8.2961 25.7637 8.43174C25.5596 8.58445 25.3395 8.71304 25.1033 8.81761C24.9593 8.81057 24.8649 8.87491 24.8203 9.01055C24.5618 9.20927 24.2788 9.36999 23.9712 9.49289C23.8272 9.48585 23.7328 9.55019 23.6882 9.68583C23.656 9.76667 23.5931 9.79889 23.4995 9.7823C23.3555 9.77526 23.2611 9.8396 23.2165 9.97523C23.1843 10.0561 23.1214 10.0883 23.0278 10.0717C22.8838 10.0647 22.7894 10.129 22.7448 10.2646C22.7126 10.3455 22.6497 10.3777 22.5561 10.3611C22.4121 10.3541 22.3177 10.4184 22.2731 10.554C22.2409 10.6349 22.178 10.6671 22.0844 10.6505C21.9404 10.6435 21.846 10.7078 21.8014 10.8435C21.6282 11.0449 21.4081 11.1735 21.141 11.2293C20.997 11.2223 20.9027 11.2866 20.858 11.4223C20.6848 11.6237 20.4647 11.7523 20.1977 11.8081C20.0536 11.8011 19.9593 11.8654 19.9146 12.0011C19.7827 12.1352 19.6254 12.2316 19.4429 12.2905C19.2989 12.2834 19.2045 12.3478 19.1599 12.4834C18.7134 12.8104 18.2417 13.0999 17.7448 13.3516C17.5397 13.3758 17.3825 13.4722 17.2731 13.641C17.139 13.6612 17.0132 13.7094 16.8958 13.7857C15.1979 13.834 13.4998 13.8501 11.8014 13.834C10.6384 13.8814 9.47492 13.9136 8.31086 13.9304C5.6369 13.9777 2.96397 13.9777 0.291992 13.9304C0.594917 13.7279 0.877936 13.5027 1.14105 13.2552C1.17331 13.1743 1.23614 13.1421 1.32973 13.1587C1.47378 13.1657 1.56812 13.1014 1.61275 12.9658C1.64501 12.8849 1.70784 12.8527 1.80143 12.8693C1.94548 12.8763 2.03982 12.812 2.08444 12.6764C2.18011 12.5631 2.30586 12.4989 2.4618 12.4834C2.60586 12.4905 2.7002 12.4261 2.74482 12.2905C2.77709 12.2096 2.83992 12.1774 2.9335 12.194C3.07756 12.2011 3.1719 12.1367 3.21652 12.0011C3.24878 11.9202 3.31161 11.888 3.4052 11.9046C3.54926 11.9116 3.6436 11.8473 3.68822 11.7117C3.72048 11.6308 3.78331 11.5986 3.8769 11.6152C4.02095 11.6222 4.11529 11.5579 4.15992 11.4223C4.19218 11.3414 4.25501 11.3092 4.3486 11.3258C4.49265 11.3328 4.58699 11.2685 4.63161 11.1329C4.66388 11.052 4.72671 11.0198 4.82029 11.0364C4.96435 11.0434 5.05869 10.9791 5.10331 10.8435C5.13558 10.7626 5.19841 10.7304 5.29199 10.747C5.43605 10.754 5.53039 10.6897 5.57501 10.554C5.60728 10.4732 5.67011 10.441 5.76369 10.4576C5.90775 10.4646 6.00209 10.4003 6.04671 10.2646C6.14237 10.1514 6.26812 10.0871 6.42407 10.0717C6.56812 10.0787 6.66246 10.0144 6.70709 9.87877C6.73935 9.79792 6.80218 9.76571 6.89577 9.7823C7.03982 9.78934 7.13416 9.72499 7.17878 9.58936C7.21105 9.50852 7.27388 9.4763 7.36746 9.49289C7.51152 9.49993 7.60586 9.43559 7.65048 9.29995C7.68275 9.21911 7.74558 9.18689 7.83916 9.20349C8.04426 9.17937 8.20152 9.0829 8.31086 8.91408C8.34312 8.83324 8.40595 8.80102 8.49954 8.81761C8.6436 8.82465 8.73794 8.76031 8.78256 8.62467C8.92661 8.63172 9.02095 8.56737 9.06558 8.43174C9.16124 8.31848 9.28699 8.25424 9.44294 8.2388C9.58699 8.24584 9.68133 8.1815 9.72596 8.04586C9.75822 7.96502 9.82105 7.9328 9.91463 7.94939C10.0587 7.95644 10.153 7.89209 10.1977 7.75646C10.2299 7.67562 10.2927 7.6434 10.3863 7.65999C10.5304 7.66703 10.6247 7.60269 10.6694 7.46705C10.7016 7.38621 10.7644 7.35399 10.858 7.37058C11.0021 7.37763 11.0964 7.31328 11.141 7.17765C11.1733 7.09681 11.2361 7.06458 11.3297 7.08118C11.5348 7.05706 11.6921 6.96059 11.8014 6.79177C11.9455 6.79881 12.0398 6.73447 12.0844 6.59883C12.1167 6.51797 12.1795 6.48581 12.2731 6.50237C12.4782 6.47828 12.6355 6.38181 12.7448 6.21296C12.7771 6.1321 12.8399 6.09994 12.9335 6.11649C13.0776 6.12353 13.1719 6.05922 13.2165 5.92355C13.2488 5.84269 13.3116 5.81053 13.4052 5.82709C13.5493 5.83413 13.6436 5.76981 13.6882 5.63415C13.7205 5.55329 13.7833 5.52113 13.8769 5.53768C14.082 5.51359 14.2393 5.41712 14.3486 5.24827C14.3809 5.16741 14.4437 5.13525 14.5373 5.15181C14.6813 5.15885 14.7757 5.09453 14.8203 4.95887C14.8526 4.87801 14.9154 4.84585 15.009 4.8624C15.153 4.86944 15.2474 4.80513 15.292 4.66946C15.3243 4.5886 15.3871 4.55644 15.4807 4.57299C15.6858 4.54891 15.843 4.45244 15.9524 4.28359C16.0964 4.29063 16.1908 4.22632 16.2354 4.09065C16.331 3.97743 16.4568 3.91311 16.6127 3.89771C16.7568 3.90476 16.8511 3.84044 16.8958 3.70478C16.928 3.62392 16.9909 3.59175 17.0844 3.60831C17.2285 3.61535 17.3228 3.55104 17.3675 3.41537C17.3997 3.33451 17.4626 3.30235 17.5561 3.3189C17.7002 3.32595 17.7945 3.26163 17.8392 3.12597C18.0124 2.92454 18.2325 2.79592 18.4995 2.74009C18.6436 2.74713 18.7379 2.68282 18.7826 2.54715C18.8148 2.46629 18.8777 2.43413 18.9712 2.45069C19.1153 2.45773 19.2096 2.39341 19.2543 2.25775C19.2865 2.17689 19.3494 2.14473 19.4429 2.16128C19.587 2.16832 19.6813 2.10401 19.726 1.96834C19.7582 1.88748 19.821 1.85532 19.9146 1.87187C20.0587 1.87892 20.153 1.8146 20.1977 1.67894C20.2371 1.60933 20.2999 1.56109 20.3863 1.53423C20.636 1.48625 20.8876 1.47017 21.141 1.486C21.9147 1.48439 22.6694 1.42008 23.4052 1.29306C24.4319 1.26892 25.4382 1.17245 26.4241 1.00366C26.4555 1.00366 26.487 1.00366 26.5184 1.00366C27.262 1.01705 27.9853 0.952732 28.6882 0.810721C29.4633 0.827776 30.218 0.763461 30.9524 0.617783C30.9838 0.617783 31.0153 0.617783 31.0467 0.617783C32.1674 0.597294 33.2679 0.500825 34.3486 0.328378C34.6434 0.233896 34.9578 0.201734 35.292 0.231909C35.9847 0.194229 36.6765 0.178157 37.3675 0.183675C37.9419 0.512449 37.9734 0.882252 37.4618 1.29306Z" fill="#862437"/>
</svg>
