<svg width="24" height="39" viewBox="0 0 24 39" fill="none" xmlns="http://www.w3.org/2000/svg">
<path fill-rule="evenodd" clip-rule="evenodd" d="M23.3301 22.5618C23.4387 24.1303 23.4544 25.706 23.3773 27.2887C23.342 27.3775 23.2948 27.4576 23.2358 27.5299C17.0592 31.187 10.8643 34.82 4.65086 38.4309C3.50501 38.9026 2.34143 38.9672 1.1603 38.6238C0.914448 38.5476 0.725769 38.4029 0.59426 38.1897C0.549637 38.0537 0.455297 37.99 0.311241 37.9968C0.279826 37.9321 0.248316 37.8685 0.216901 37.8038C0.223788 37.6562 0.160863 37.5598 0.0282218 37.5144C-0.00291027 29.6937 0.0285048 21.8797 0.122561 14.0726C0.266618 14.0796 0.360958 14.0153 0.40558 13.8796C0.549637 13.8867 0.643977 13.8223 0.688599 13.6867C0.720863 13.6058 0.783694 13.5736 0.877278 13.5902C1.02134 13.5973 1.11567 13.5329 1.1603 13.3973C1.19256 13.3164 1.25539 13.2842 1.34898 13.3008C1.49303 13.3079 1.58737 13.2435 1.632 13.1079C1.66426 13.027 1.72709 12.9948 1.82067 13.0114C2.02577 12.9873 2.18303 12.8908 2.29237 12.722C2.32464 12.6412 2.38747 12.6089 2.48105 12.6255C2.62511 12.6326 2.71945 12.5682 2.76407 12.4326C2.79633 12.3518 2.85917 12.3195 2.95275 12.3361C3.09681 12.3432 3.19115 12.2788 3.23577 12.1432C3.33143 12.0299 3.45718 11.9657 3.61313 11.9502C3.75718 11.9573 3.85152 11.8929 3.89615 11.7573C3.92841 11.6765 3.99124 11.6443 4.08483 11.6608C4.22888 11.6679 4.32322 11.6035 4.36784 11.4679C4.40011 11.3871 4.46294 11.3548 4.55652 11.3714C4.76162 11.3473 4.91888 11.2509 5.02822 11.082C5.06049 11.0012 5.12332 10.969 5.2169 10.9856C5.36096 10.9926 5.4553 10.9283 5.49992 10.7926C5.53218 10.7118 5.59501 10.6796 5.6886 10.6962C5.89369 10.672 6.05096 10.5756 6.1603 10.4068C6.19256 10.3259 6.25539 10.2937 6.34898 10.3103C6.49303 10.3173 6.58737 10.253 6.632 10.1173C6.66426 10.0365 6.72709 10.0043 6.82067 10.0209C6.96473 10.0279 7.05907 9.96358 7.10369 9.82794C7.19935 9.71469 7.32511 9.65044 7.48105 9.635C7.62511 9.64205 7.71945 9.5777 7.76407 9.44207C7.85973 9.32881 7.98549 9.26457 8.14143 9.24913C8.28549 9.25617 8.37983 9.19183 8.42445 9.05619C8.80228 8.95992 9.11681 8.76698 9.36784 8.47738C9.40011 8.39654 9.46294 8.36432 9.55652 8.38091C9.76162 8.3568 9.91888 8.26033 10.0282 8.09151C10.0605 8.01067 10.1233 7.97845 10.2169 7.99504C10.361 8.00208 10.4553 7.93774 10.4999 7.8021C10.5322 7.72126 10.595 7.68904 10.6886 7.70563C10.8327 7.71268 10.927 7.64833 10.9716 7.5127C11.0039 7.43186 11.0667 7.39964 11.1603 7.41623C11.3044 7.42327 11.3987 7.35893 11.4433 7.22329C11.539 7.11004 11.6647 7.04579 11.8207 7.03035C11.9647 7.0374 12.0591 6.97305 12.1037 6.83742C12.3332 6.85931 12.4904 6.76285 12.5754 6.54801C12.6077 6.46717 12.6705 6.43495 12.7641 6.45154C12.9692 6.42742 13.1264 6.33096 13.2358 6.16214C13.268 6.0813 13.3309 6.04908 13.4244 6.06567C13.5685 6.07271 13.6628 6.00837 13.7075 5.87273C13.7397 5.79189 13.8026 5.75967 13.8961 5.77626C14.0402 5.7833 14.1345 5.71896 14.1792 5.58333C14.2114 5.50248 14.2743 5.47026 14.3678 5.48686C14.5729 5.46274 14.7302 5.36627 14.8395 5.19745C14.8718 5.11661 14.9346 5.08439 15.0282 5.10098C15.1723 5.10802 15.2666 5.04368 15.3112 4.90805C15.3435 4.8272 15.4063 4.79498 15.4999 4.81158C15.705 4.78746 15.8623 4.69099 15.9716 4.52217C16.2387 4.46632 16.4588 4.33772 16.632 4.1363C16.7761 4.14334 16.8704 4.07899 16.915 3.94336C16.9473 3.86252 17.0101 3.8303 17.1037 3.84689C17.2477 3.85393 17.3421 3.78959 17.3867 3.65395C17.4824 3.5407 17.6081 3.47645 17.7641 3.46102C17.9081 3.46806 18.0025 3.40371 18.0471 3.26808C18.0794 3.18724 18.1422 3.15502 18.2358 3.17161C18.4409 3.14749 18.5981 3.05103 18.7075 2.88221C18.7397 2.80137 18.8026 2.76914 18.8961 2.78574C19.0402 2.79278 19.1345 2.72844 19.1792 2.5928C19.2114 2.51196 19.2743 2.47974 19.3678 2.49633C19.5119 2.50337 19.6062 2.43903 19.6509 2.30339C19.6831 2.22255 19.746 2.19033 19.8395 2.20693C20.0446 2.18281 20.2019 2.08634 20.3112 1.91752C20.3435 1.83668 20.4063 1.80446 20.4999 1.82105C20.644 1.82809 20.7383 1.76375 20.7829 1.62811C20.8152 1.54727 20.878 1.51505 20.9716 1.53165C21.1157 1.53869 21.21 1.47434 21.2546 1.33871C21.2869 1.25787 21.3497 1.22565 21.4433 1.24224C21.6484 1.21812 21.8057 1.12165 21.915 0.952835C22.0591 0.959877 22.1534 0.895532 22.198 0.759898C22.2303 0.679057 22.2931 0.646837 22.3867 0.663429C22.6075 0.606899 22.8119 0.51043 22.9999 0.374023C23.0313 0.406147 23.0628 0.438368 23.0943 0.470492C23.1613 7.85034 23.24 15.2141 23.3301 22.5618Z" fill="#852236"/>
</svg>
