<svg width="23" height="39" viewBox="0 0 23 39" fill="none" xmlns="http://www.w3.org/2000/svg">
<path fill-rule="evenodd" clip-rule="evenodd" d="M0.632444 0.338656C0.726029 0.322063 0.788859 0.354284 0.821123 0.435125C0.994331 0.636551 1.21443 0.765144 1.4815 0.820999C1.63744 0.836434 1.7632 0.900682 1.85886 1.01394C1.90348 1.14957 1.99782 1.21392 2.14188 1.20687C2.36065 1.25434 2.54933 1.3508 2.70792 1.49628C2.75254 1.63191 2.84688 1.69626 2.99093 1.68922C3.14688 1.70465 3.27263 1.7689 3.36829 1.88215C3.54188 2.09139 3.76207 2.21999 4.02867 2.26803C4.12225 2.25143 4.18509 2.28366 4.21735 2.3645C4.29424 2.49347 4.40433 2.58994 4.54754 2.6539C4.58518 2.63191 4.60084 2.59969 4.59471 2.55743C4.97537 2.78394 5.35273 3.0091 5.72678 3.23271C5.83612 3.40153 5.99339 3.498 6.19848 3.52212C6.29207 3.50553 6.3549 3.53775 6.38716 3.61859C6.46141 3.77332 6.58716 3.83767 6.76452 3.81152C6.81225 3.96636 6.87518 3.99858 6.9532 3.90799C7.06735 3.94967 7.16169 4.01401 7.23622 4.10093C7.40942 4.30236 7.62952 4.43095 7.89659 4.4868C7.97084 4.64154 8.09659 4.70588 8.27395 4.67974C8.30424 4.82907 8.39858 4.89342 8.55697 4.87268C8.65056 4.85609 8.71339 4.88831 8.74565 4.96915C8.8199 5.12388 8.94565 5.18823 9.12301 5.16208C9.21659 5.14549 9.27942 5.17771 9.31169 5.25855C9.35631 5.39419 9.45065 5.45853 9.59471 5.45149C9.68829 5.4349 9.75112 5.46712 9.78339 5.54796C9.89273 5.71678 10.05 5.81325 10.2551 5.83736C10.4739 5.88483 10.6625 5.9813 10.8211 6.12677C10.8657 6.2624 10.9601 6.32675 11.1041 6.31971C11.3229 6.36717 11.5116 6.46364 11.6702 6.60911C11.7148 6.74475 11.8091 6.80909 11.9532 6.80205C12.563 7.09782 13.1606 7.41935 13.7457 7.76674C13.7759 7.91607 13.8703 7.98041 14.0287 7.95967C14.0733 8.09531 14.1676 8.15965 14.3117 8.15261C14.59 8.23056 14.8416 8.35925 15.0664 8.53848C15.0967 8.68782 15.191 8.75216 15.3494 8.73142C15.4237 8.88616 15.5494 8.9505 15.7268 8.92436C15.963 9.02893 16.1831 9.15752 16.3872 9.31023C16.4318 9.44587 16.5261 9.51021 16.6702 9.50317C16.889 9.55063 17.0776 9.6471 17.2362 9.79258C17.3456 9.9614 17.5028 10.0579 17.7079 10.082C17.8639 10.0974 17.9896 10.1617 18.0853 10.2749C18.1299 10.4106 18.2242 10.4749 18.3683 10.4679C18.5871 10.5153 18.7757 10.6118 18.9343 10.7573C18.979 10.8929 19.0733 10.9572 19.2173 10.9502C19.7347 11.1342 20.2064 11.3913 20.6324 11.7219C20.6771 11.8576 20.7714 11.9219 20.9155 11.9149C21.009 11.8983 21.0719 11.9305 21.1041 12.0114C21.1488 12.147 21.2431 12.2113 21.3872 12.2043C21.5431 12.2197 21.6689 12.284 21.7645 12.3972C21.8091 12.5329 21.9035 12.5972 22.0475 12.5902C22.2051 12.6144 22.3466 12.6787 22.4721 12.7831C22.535 20.7256 22.535 28.6686 22.4721 36.6108C22.3196 37.0845 22.0523 37.4704 21.6702 37.7685C21.5261 37.7617 21.4318 37.8254 21.3872 37.9614C20.7246 38.4698 20.0013 38.5663 19.2173 38.2508C19.108 38.082 18.9507 37.9855 18.7457 37.9614C18.6521 37.9778 18.5892 37.946 18.557 37.8649C18.4476 37.6961 18.2904 37.5996 18.0853 37.5755C17.9917 37.5919 17.9289 37.5601 17.8966 37.4791C17.852 37.343 17.7576 37.2794 17.6136 37.2861C17.4576 37.2707 17.3319 37.206 17.2362 37.0932C17.1916 36.9572 17.0973 36.8935 16.9532 36.9002C16.8596 36.9166 16.7968 36.8848 16.7645 36.8038C16.6552 36.635 16.4979 36.5385 16.2928 36.5144C15.9008 36.3947 15.5549 36.2018 15.2551 35.9356C15.2105 35.7995 15.1161 35.7359 14.9721 35.7426C14.8785 35.759 14.8157 35.7272 14.7834 35.6462C14.7154 35.4648 14.621 35.432 14.5004 35.5497C14.406 35.5178 14.3431 35.4532 14.3117 35.3567C14.2437 35.1754 14.1493 35.1426 14.0287 35.2603C13.7737 35.0982 13.5222 34.9371 13.274 34.7779C13.2293 34.6419 13.135 34.5782 12.9909 34.585C12.835 34.5696 12.7092 34.5049 12.6136 34.3921C12.569 34.256 12.4746 34.1924 12.3306 34.1991C11.9386 34.0795 11.5926 33.8866 11.2928 33.6203C11.2482 33.4843 11.1539 33.4206 11.0098 33.4274C9.97225 32.8968 8.96593 32.318 7.99093 31.6909C7.94631 31.5549 7.85197 31.4913 7.70792 31.498C7.55197 31.4826 7.42622 31.4179 7.33056 31.3051C7.28593 31.169 7.19159 31.1054 7.04754 31.1121C6.95395 31.1285 6.89112 31.0967 6.85886 31.0157C6.81424 30.8796 6.7199 30.816 6.57584 30.8227C6.35707 30.7755 6.16839 30.679 6.0098 30.5333C5.96518 30.3973 5.87084 30.3336 5.72678 30.3404C5.19235 30.0992 4.68924 29.8098 4.21735 29.4722C4.17273 29.3361 4.07839 29.2725 3.93433 29.2792C3.77839 29.2638 3.65263 29.1992 3.55697 29.0863C3.51235 28.9503 3.41801 28.8866 3.27395 28.8934C3.11801 28.8779 2.99226 28.8133 2.89659 28.7004C2.85197 28.5644 2.75763 28.5007 2.61358 28.5075C2.22159 28.3879 1.87565 28.1949 1.57584 27.9287C1.53122 27.7926 1.43688 27.729 1.29282 27.7357C1.13688 27.7203 1.01112 27.6557 0.915463 27.5428C0.806123 27.374 0.648859 27.2775 0.443765 27.2534C0.41018 27.0904 0.31584 26.9939 0.160746 26.964C0.160746 25.6781 0.160746 24.3915 0.160746 23.1052C0.270085 19.5351 0.238576 15.9658 0.0664062 12.3972C0.0664062 9.76045 0.0664062 7.12358 0.0664062 4.4868C0.160369 3.08897 0.191784 1.67407 0.160746 0.242188C0.322633 0.254632 0.479897 0.286756 0.632444 0.338656Z" fill="#C30C3F"/>
</svg>
