<svg width="24" height="39" viewBox="0 0 24 39" fill="none" xmlns="http://www.w3.org/2000/svg">
<path fill-rule="evenodd" clip-rule="evenodd" d="M3.19839 0.0946923C4.00028 -0.00862554 4.69216 0.216436 5.27386 0.769972C5.31849 0.905607 5.41282 0.969951 5.55688 0.962909C6.78348 1.62198 7.97839 2.32939 9.14179 3.08522C9.20981 3.26677 9.30414 3.2989 9.42481 3.18169C9.55424 3.27931 9.67999 3.37578 9.80216 3.47109C9.84679 3.60673 9.94113 3.67107 10.0852 3.66403C10.304 3.71149 10.4926 3.80796 10.6512 3.95343C10.6958 4.08907 10.7902 4.15341 10.9342 4.14637C11.7834 4.58029 12.601 5.06263 13.3871 5.5934C13.4613 5.74814 13.5871 5.81248 13.7644 5.78634C14.1136 5.9322 14.428 6.12513 14.7078 6.36515C14.7524 6.50078 14.8468 6.56513 14.9908 6.55808C15.3828 6.6779 15.7288 6.87084 16.0286 7.1369C16.0732 7.27253 16.1675 7.33688 16.3116 7.32983C17.0188 7.64287 17.6791 8.02875 18.2927 8.48746C18.367 8.64219 18.4927 8.70654 18.6701 8.68039C19.7659 9.28843 20.8351 9.93159 21.8776 10.6098C21.9519 10.7645 22.0776 10.8288 22.255 10.8027C22.3027 10.9575 22.3657 10.9898 22.4437 10.8992C22.5066 10.9313 22.5694 10.9635 22.6324 10.9956C22.6626 11.145 22.757 11.2093 22.9154 11.1886C23.1003 11.3483 23.289 11.5091 23.4814 11.6709C23.4135 16.5583 23.3821 21.4461 23.3871 26.3341C23.3241 30.3378 23.2613 34.3573 23.1984 38.3927C23.0498 38.3005 22.8925 38.2361 22.7267 38.1998C22.6331 38.2164 22.5703 38.1841 22.538 38.1033C22.4934 37.9677 22.399 37.9033 22.255 37.9104C22.1614 37.927 22.0986 37.8947 22.0663 37.8139C21.957 37.6451 21.7997 37.5486 21.5946 37.5245C21.501 37.5411 21.4382 37.5089 21.4059 37.428C21.2966 37.2592 21.1393 37.1627 20.9342 37.1386C20.8407 37.1552 20.7778 37.123 20.7456 37.0421C20.7009 36.9065 20.6066 36.8422 20.4625 36.8492C19.4877 36.351 18.5443 35.8044 17.6324 35.2092C17.5877 35.0736 17.4934 35.0093 17.3493 35.0163C17.1934 35.0009 17.0676 34.9366 16.972 34.8234C16.9274 34.6877 16.833 34.6234 16.689 34.6304C16.533 34.615 16.4073 34.5507 16.3116 34.4375C16.267 34.3019 16.1726 34.2375 16.0286 34.2446C15.6991 34.1568 15.4161 33.9961 15.1795 33.7622C15.1349 33.6266 15.0406 33.5622 14.8965 33.5693C14.5045 33.4495 14.1586 33.2565 13.8588 32.9905C13.8141 32.8548 13.7198 32.7905 13.5757 32.7975C13.5077 32.616 13.4134 32.5839 13.2927 32.7011C13.0377 32.5389 12.7862 32.3782 12.538 32.2187C12.4903 32.0639 12.4274 32.0317 12.3493 32.1222C12.2352 32.0806 12.1408 32.0162 12.0663 31.9293C12.0217 31.7937 11.9274 31.7293 11.7833 31.7364C11.6274 31.7209 11.5016 31.6567 11.4059 31.5434C11.3613 31.4078 11.267 31.3435 11.1229 31.3505C10.7935 31.2627 10.5105 31.102 10.2739 30.8682C10.1645 30.6993 10.0073 30.6029 9.80216 30.5788C9.64622 30.5633 9.52047 30.4991 9.42481 30.3858C9.38018 30.2502 9.28584 30.1858 9.14179 30.1929C8.60735 29.952 8.10424 29.6626 7.63235 29.3247C7.52301 29.1558 7.36575 29.0594 7.16065 29.0353C6.85311 28.9124 6.57009 28.7516 6.3116 28.5529C6.26698 28.4173 6.17264 28.3529 6.02858 28.36C5.19594 27.9828 4.40981 27.5326 3.67009 27.0094C3.62547 26.8738 3.53113 26.8094 3.38707 26.8165C3.31282 26.6617 3.18704 26.5974 3.00971 26.6235C2.83345 26.5499 2.67621 26.4535 2.53801 26.3341C2.49338 26.1985 2.39904 26.1342 2.25499 26.1412C2.09905 26.1258 1.97327 26.0615 1.87764 25.9483C1.833 25.8126 1.73866 25.7483 1.59462 25.7553C1.43867 25.7399 1.31289 25.6756 1.21726 25.5624C1.04365 25.3531 0.823514 25.2246 0.556881 25.1765C0.463334 25.1931 0.400438 25.1609 0.368202 25.08C0.352476 17.5554 0.368202 10.0309 0.415372 2.50641C0.521221 2.32244 0.599834 2.1295 0.651221 1.92759C0.635032 1.8319 0.666485 1.76765 0.745561 1.73466C1.09148 1.44525 1.40594 1.12372 1.68896 0.769972C2.03909 0.467447 2.44789 0.27451 2.91537 0.191161C3.05191 0.32477 3.14625 0.292646 3.19839 0.0946923Z" fill="#C30C3F"/>
</svg>
