<svg width="45" height="29" viewBox="0 0 45 29" fill="none" xmlns="http://www.w3.org/2000/svg">
<path fill-rule="evenodd" clip-rule="evenodd" d="M21.0474 0.537422C21.2092 0.549838 21.3665 0.581991 21.519 0.633891C21.6284 0.80274 21.7857 0.899208 21.9907 0.923296C22.227 1.02786 22.4471 1.15648 22.6511 1.30917C22.6957 1.44483 22.7901 1.50915 22.9341 1.50211C23.2807 1.64681 23.5951 1.83975 23.8775 2.08092C24.0507 2.28235 24.2708 2.41094 24.5379 2.46679C24.6315 2.4502 24.6943 2.48242 24.7266 2.56326C24.7712 2.6989 24.8656 2.76324 25.0096 2.7562C25.1032 2.73961 25.166 2.77183 25.1983 2.85267C25.2429 2.9883 25.3373 3.05265 25.4813 3.0456C25.6864 3.06972 25.8437 3.16619 25.953 3.33501C26.0624 3.50383 26.2196 3.6003 26.4247 3.62442C26.6918 3.68027 26.9119 3.80886 27.0851 4.01029C27.1297 4.14592 27.2241 4.21027 27.3681 4.20323C28.0918 4.57299 28.7836 4.99099 29.4436 5.45732C29.4882 5.59295 29.5825 5.6573 29.7266 5.65026C30.0341 5.77316 30.3172 5.93387 30.5757 6.1326C30.6203 6.26823 30.7146 6.33258 30.8587 6.32553C31.0146 6.34097 31.1404 6.40522 31.236 6.51847C31.2807 6.65411 31.375 6.71845 31.5191 6.71141C31.7553 6.81598 31.9754 6.94457 32.1794 7.09728C32.2241 7.23292 32.3184 7.29726 32.4624 7.29022C32.556 7.27363 32.6189 7.30585 32.6511 7.38669C32.6957 7.52232 32.7901 7.58667 32.9341 7.57963C33.0277 7.56303 33.0906 7.59525 33.1228 7.6761C33.1674 7.81173 33.2618 7.87607 33.4058 7.86903C33.4994 7.85244 33.5623 7.88466 33.5945 7.9655C33.6391 8.10114 33.7335 8.16548 33.8775 8.15844C34.1446 8.21429 34.3647 8.34289 34.5379 8.54431C34.5825 8.67995 34.6769 8.74429 34.8209 8.73725C35.1674 8.88195 35.4819 9.07489 35.7643 9.31606C35.9375 9.51749 36.1576 9.64608 36.4247 9.70193C36.9756 9.99954 37.5102 10.3211 38.0285 10.6666C38.0731 10.8023 38.1674 10.8666 38.3115 10.8596C39.2484 11.3685 40.1604 11.9151 41.0474 12.4995C41.092 12.6352 41.1863 12.6995 41.3304 12.6925C41.8021 12.9012 42.2424 13.1585 42.6511 13.4642C42.6957 13.5998 42.7901 13.6642 42.9341 13.6571C43.0277 13.6406 43.0906 13.6728 43.1228 13.7536C43.1674 13.8892 43.2618 13.9536 43.4058 13.9466C43.4994 13.93 43.5623 13.9622 43.5945 14.043C43.7039 14.2118 43.8611 14.3083 44.0662 14.3324C43.9907 14.5324 43.865 14.6932 43.6889 14.8148C43.5448 14.8077 43.4505 14.8721 43.4058 15.0077C43.3736 15.0885 43.3107 15.1208 43.2172 15.1042C43.0731 15.0971 42.9788 15.1615 42.9341 15.2971C42.9019 15.378 42.8391 15.4102 42.7455 15.3936C42.6014 15.3865 42.5071 15.4509 42.4624 15.5865C42.4302 15.6674 42.3674 15.6996 42.2738 15.683C42.1297 15.6759 42.0354 15.7403 41.9907 15.8759C41.8175 16.0773 41.5974 16.2059 41.3304 16.2618C41.1863 16.2548 41.092 16.3191 41.0474 16.4547C40.9154 16.5888 40.7581 16.6853 40.5757 16.7441C40.4316 16.7371 40.3373 16.8014 40.2926 16.9371C39.947 17.2106 39.5696 17.4356 39.1606 17.6124C39.0165 17.6053 38.9222 17.6697 38.8775 17.8053C38.8453 17.8861 38.7824 17.9184 38.6889 17.9018C38.5448 17.8947 38.4505 17.9591 38.4058 18.0947C37.7305 18.6173 37.0073 19.0674 36.236 19.4453C36.092 19.4382 35.9976 19.5026 35.953 19.6382C35.9207 19.719 35.8579 19.7513 35.7643 19.7347C35.6203 19.7276 35.5259 19.792 35.4813 19.9276C35.1989 20.1688 34.8844 20.3617 34.5379 20.5064C34.3939 20.4994 34.2995 20.5637 34.2549 20.6994C34.2226 20.7802 34.1598 20.8124 34.0662 20.7958C33.9222 20.7888 33.8278 20.8531 33.7832 20.9888C33.61 21.1902 33.3899 21.3188 33.1228 21.3746C32.9788 21.3676 32.8844 21.4319 32.8398 21.5676C32.8075 21.6484 32.7447 21.6806 32.6511 21.664C32.5071 21.657 32.4127 21.7213 32.3681 21.857C32.2361 21.9911 32.0789 22.0875 31.8964 22.1464C31.7524 22.1393 31.658 22.2037 31.6134 22.3393C31.2677 22.6128 30.8904 22.8379 30.4813 23.0146C30.3373 23.0076 30.2429 23.0719 30.1983 23.2075C29.6014 23.6416 28.9724 24.0275 28.3115 24.3652C28.1674 24.3581 28.0731 24.4225 28.0285 24.5581C27.746 24.7993 27.4316 24.9922 27.0851 25.1369C26.941 25.1299 26.8467 25.1942 26.8021 25.3298C25.6392 26.1176 24.4442 26.8572 23.2172 27.5486C23.0731 27.5416 22.9788 27.6059 22.9341 27.7416C22.7609 27.943 22.5408 28.0716 22.2738 28.1274C22.1297 28.1204 22.0354 28.1847 21.9907 28.3204C21.9907 28.3847 21.9593 28.4168 21.8964 28.4168C21.6297 28.4087 21.3781 28.3445 21.1417 28.2239C20.8746 28.168 20.6545 28.0394 20.4813 27.838C20.4367 27.7024 20.3424 27.638 20.1983 27.6451C18.846 26.9218 17.5253 26.15 16.236 25.3298C16.1914 25.1942 16.0971 25.1299 15.953 25.1369C11.0317 22.3156 6.15745 19.4215 1.33037 16.4547C1.29895 16.3583 1.23603 16.2939 1.14169 16.2618C1.07877 16.2618 1.04735 16.2297 1.04735 16.1653C1.05424 16.018 0.991313 15.9216 0.858672 15.8759C0.691974 15.6548 0.597634 15.3976 0.575653 15.1042C0.569144 14.6106 0.632068 14.1283 0.764332 13.6571C0.779427 13.4977 0.842257 13.3691 0.953012 13.2713C1.08565 13.2256 1.14858 13.1292 1.14169 12.9819C1.33858 12.8772 1.46433 12.7165 1.51905 12.4995C1.73122 12.4436 1.88839 12.315 1.99075 12.1136C2.1348 12.1207 2.22914 12.0563 2.27377 11.9207C2.36943 11.8075 2.49518 11.7432 2.65112 11.7278C2.79518 11.7348 2.88952 11.6705 2.93414 11.5348C2.96641 11.454 3.02924 11.4218 3.12282 11.4384C3.26688 11.4454 3.36122 11.3811 3.40584 11.2454C3.43811 11.1646 3.50094 11.1324 3.59452 11.149C3.73858 11.156 3.83292 11.0917 3.87754 10.956C3.9098 10.8752 3.97263 10.843 4.06622 10.8596C4.21028 10.8666 4.30462 10.8023 4.34924 10.6666C4.3815 10.5858 4.44433 10.5536 4.53792 10.5702C4.74301 10.546 4.90028 10.4496 5.00962 10.2807C5.15367 10.2878 5.24801 10.2234 5.29263 10.0878C5.3249 10.007 5.38773 9.97475 5.48131 9.99134C5.62537 9.99838 5.71971 9.93404 5.76433 9.7984C5.85999 9.68515 5.98575 9.6209 6.14169 9.60547C6.28575 9.61251 6.38009 9.54816 6.42471 9.41253C6.45697 9.33169 6.5198 9.29947 6.61339 9.31606C6.75745 9.3231 6.85179 9.25876 6.89641 9.12312C6.92867 9.04228 6.9915 9.01006 7.08509 9.02665C7.29018 9.00254 7.44745 8.90607 7.55679 8.73725C7.70084 8.74429 7.79518 8.67995 7.8398 8.54431C7.87207 8.46347 7.9349 8.43125 8.02848 8.44784C8.17254 8.45489 8.26688 8.39054 8.3115 8.25491C8.40716 8.14165 8.53292 8.0774 8.68886 8.06197C8.99113 7.97679 9.24273 7.81597 9.44358 7.57963C9.58763 7.58667 9.68197 7.52232 9.7266 7.38669C9.82226 7.27344 9.94801 7.20919 10.104 7.19375C10.309 7.16963 10.4663 7.07317 10.5757 6.90435C10.7197 6.91139 10.814 6.84704 10.8587 6.71141C11.1172 6.51268 11.4002 6.35197 11.7077 6.22907C11.8518 6.23611 11.9461 6.17176 11.9907 6.03613C12.023 5.95529 12.0858 5.92307 12.1794 5.93966C12.3235 5.9467 12.4178 5.88236 12.4624 5.74672C12.4947 5.66588 12.5575 5.63366 12.6511 5.65026C12.7952 5.6573 12.8895 5.59295 12.9341 5.45732C12.9664 5.37648 13.0292 5.34426 13.1228 5.36085C13.2669 5.36789 13.3612 5.30355 13.4058 5.16791C13.5015 5.05466 13.6273 4.99041 13.7832 4.97498C13.9273 4.98202 14.0216 4.91767 14.0662 4.78204C14.2103 4.78908 14.3046 4.72474 14.3492 4.5891C14.4874 4.46977 14.6447 4.3733 14.8209 4.2997C14.9983 4.32584 15.124 4.26149 15.1983 4.10676C15.3424 4.1138 15.4367 4.04946 15.4813 3.91382C15.5136 3.83298 15.5764 3.80076 15.67 3.81735C15.814 3.82439 15.9084 3.76005 15.953 3.62442C15.9853 3.54357 16.0481 3.51135 16.1417 3.52795C16.2857 3.53499 16.3801 3.47064 16.4247 3.33501C16.457 3.25417 16.5198 3.22195 16.6134 3.23854C16.7574 3.24558 16.8518 3.18124 16.8964 3.0456C16.9287 2.96476 16.9915 2.93254 17.0851 2.94914C17.2291 2.95618 17.3235 2.89183 17.3681 2.7562C17.4004 2.67536 17.4632 2.64314 17.5568 2.65973C17.8239 2.60387 18.044 2.47528 18.2172 2.27386C18.3612 2.2809 18.4556 2.21655 18.5002 2.08092C18.6442 2.08796 18.7386 2.02362 18.7832 1.88798C18.8789 1.77473 19.0046 1.71048 19.1606 1.69504C19.3046 1.70209 19.399 1.63777 19.4436 1.50211C19.4758 1.42125 19.5387 1.38908 19.6323 1.40564C19.7763 1.41268 19.8707 1.34837 19.9153 1.2127C20.1193 1.06001 20.3394 0.93139 20.5757 0.826828C20.7197 0.83387 20.814 0.769554 20.8587 0.633891C20.8909 0.553031 20.9538 0.520868 21.0474 0.537422Z" fill="#852336"/>
</svg>
