<svg width="36" height="43" viewBox="0 0 36 43" fill="none" xmlns="http://www.w3.org/2000/svg">
<path fill-rule="evenodd" clip-rule="evenodd" d="M21.7264 0.354236C22.3799 0.394888 22.9774 0.587825 23.5189 0.933047C23.5635 1.06871 23.6578 1.13303 23.8019 1.12598C23.8955 1.10943 23.9583 1.14159 23.9906 1.22245C24.0352 1.35812 24.1295 1.42243 24.2736 1.41539C24.3679 1.44754 24.4308 1.51186 24.4623 1.60833C24.7165 1.9002 24.9681 2.18961 25.217 2.47654C25.296 2.50951 25.3275 2.57382 25.3113 2.66948C25.3021 2.86752 25.365 3.02831 25.5 3.15182C25.6136 3.67231 25.8023 4.15465 26.066 4.59885C26.1241 5.03759 26.2812 5.42347 26.5377 5.75648C26.623 5.82487 26.6544 5.92134 26.6321 6.04588C26.6228 6.24393 26.6858 6.40474 26.8208 6.52822C27.6604 8.52493 28.4472 10.5508 29.1792 12.6057C29.1698 12.8038 29.233 12.9646 29.3679 13.0881C29.3425 13.2694 29.4057 13.398 29.5566 13.474C29.9915 14.5239 30.4 15.5851 30.783 16.6574C30.7736 16.8555 30.8368 17.0163 30.9717 17.1398C31.2641 17.682 31.484 18.2608 31.6321 18.8762C31.6226 19.0742 31.6858 19.2351 31.8208 19.3585C31.8113 19.5566 31.8745 19.7174 32.0094 19.8409C32.5217 20.9946 32.9623 22.1843 33.3302 23.4102C33.3208 23.6083 33.384 23.7691 33.5189 23.8926C33.6934 24.1858 33.8189 24.5074 33.8962 24.8573C33.8736 25.0886 33.9368 25.2815 34.0849 25.4361C34.0755 25.6341 34.1387 25.7949 34.2736 25.9184C34.2641 26.1165 34.3274 26.2773 34.4623 26.4007C34.5472 26.4691 34.5792 26.5656 34.5566 26.6902C34.5472 26.8882 34.6104 27.049 34.7453 27.1725C34.8302 27.2409 34.8623 27.3374 34.8396 27.4619C34.8302 27.66 34.8934 27.8208 35.0283 27.9442C35.1132 28.0126 35.1453 28.1091 35.1226 28.2337C35.1132 28.4317 35.1764 28.5925 35.3113 28.716C35.3424 28.9089 35.3745 29.1019 35.4057 29.2948C35.4057 29.3591 35.3745 29.3913 35.3113 29.3913C35.1066 29.4154 34.9491 29.5119 34.8396 29.6807C34.5811 29.8794 34.2981 30.0401 33.9906 30.163C33.8462 30.156 33.7519 30.2203 33.7075 30.356C31.95 31.4157 30.1887 32.4768 28.4245 33.5394C28.2472 33.5133 28.1217 33.5776 28.0472 33.7324C27.9028 33.7253 27.8085 33.7897 27.7641 33.9253C27.7321 34.0061 27.6689 34.0384 27.5755 34.0218C27.4311 34.0147 27.3371 34.0791 27.2925 34.2147C27.1968 34.328 27.071 34.3922 26.9151 34.4076C26.771 34.4006 26.6767 34.4649 26.6321 34.6006C26.5998 34.6814 26.537 34.7136 26.4434 34.697C26.2993 34.69 26.205 34.7543 26.1604 34.89C26.1281 34.9708 26.0653 35.003 25.9717 34.9865C25.7666 35.0106 25.6093 35.107 25.5 35.2759C25.4677 35.3567 25.4049 35.3889 25.3113 35.3723C25.1673 35.3653 25.0729 35.4296 25.0283 35.5653C24.6195 35.871 24.1792 36.1283 23.7075 36.337C23.5635 36.33 23.4691 36.3943 23.4245 36.5299C23.3923 36.6108 23.3294 36.643 23.2358 36.6264C23.0918 36.6194 22.9975 36.6837 22.9528 36.8194C21.6256 37.661 20.2733 38.4649 18.8962 39.2311C18.7522 39.224 18.6578 39.2884 18.6132 39.424C18.2044 39.7297 17.7642 39.987 17.2925 40.1958C17.1484 40.1887 17.0541 40.2531 17.0094 40.3887C16.7509 40.5874 16.4679 40.7481 16.1604 40.871C16.0163 40.864 15.922 40.9283 15.8774 41.064C15.8451 41.1448 15.7823 41.177 15.6887 41.1604C15.5446 41.1534 15.4503 41.2177 15.4057 41.3534C15.3734 41.4342 15.3106 41.4664 15.217 41.4498C15.0729 41.4428 14.9786 41.5071 14.934 41.6428C14.9017 41.7236 14.8389 41.7558 14.7453 41.7393C14.5402 41.7634 14.3829 41.8598 14.2736 42.0287C14.091 42.0914 13.9024 42.1235 13.7075 42.1251C13.7075 40.5173 13.7075 38.9095 13.7075 37.3017C13.8171 36 13.8327 34.6816 13.7547 33.3465C13.7186 33.2928 13.6714 33.2607 13.6132 33.25C13.5196 33.2666 13.4568 33.2344 13.4245 33.1535C13.3799 33.0179 13.2856 32.9536 13.1415 32.9606C12.9856 32.9452 12.8598 32.8809 12.7642 32.7677C12.7195 32.632 12.6252 32.5677 12.4811 32.5747C12.3718 32.4059 12.2145 32.3094 12.0094 32.2853C11.9158 32.3019 11.853 32.2697 11.8208 32.1889C11.7761 32.0532 11.6818 31.9889 11.5377 31.9959C11.4441 32.0125 11.3813 31.9803 11.3491 31.8995C11.3044 31.7638 11.2101 31.6995 11.066 31.7065C10.9101 31.6911 10.7843 31.6268 10.6887 31.5136C10.6441 31.3779 10.5497 31.3136 10.4057 31.3206C10.3121 31.3372 10.2492 31.305 10.217 31.2242C10.1724 31.0885 10.078 31.0242 9.93396 31.0312C9.77802 31.0158 9.65226 30.9516 9.5566 30.8383C9.51198 30.7027 9.41764 30.6383 9.27358 30.6454C9.18 30.662 9.11717 30.6297 9.0849 30.5489C9.04028 30.4133 8.94594 30.3489 8.80189 30.356C8.62868 30.1545 8.40858 30.0259 8.14151 29.9701C8.03217 29.8013 7.87491 29.7048 7.66981 29.6807C7.34189 29.3794 6.96453 29.1543 6.53774 29.0054C6.44415 29.022 6.38132 28.9898 6.34906 28.9089C6.30264 28.6852 6.2083 28.4923 6.06604 28.3301C5.94924 28.1648 5.88632 27.9718 5.87736 27.7513C5.8866 27.5533 5.82368 27.3924 5.68868 27.269C5.50924 26.8681 5.35198 26.45 5.21698 26.0149C5.23972 25.7835 5.17679 25.5906 5.0283 25.4361C4.84906 25.1449 4.7233 24.8234 4.65094 24.4714C4.67368 24.24 4.61075 24.0471 4.46226 23.8926C4.47151 23.6945 4.40858 23.5337 4.27358 23.4102C4.07538 23.0922 3.94953 22.7385 3.89623 22.3491C3.90547 22.151 3.84255 21.9902 3.70755 21.8667C3.60972 21.7288 3.54679 21.568 3.51887 21.3844C3.5416 21.153 3.47868 20.9601 3.33019 20.8056C3.33943 20.6075 3.27651 20.4467 3.14151 20.3232C2.74208 19.4205 2.39613 18.488 2.10377 17.5256C2.12651 17.2943 2.06358 17.1014 1.91509 16.9468C1.40245 15.7932 0.96217 14.6034 0.59434 13.3775C0.573302 13.1998 0.541792 13.023 0.5 12.8469C0.599057 12.6512 0.724906 12.4743 0.877358 12.3163C1.03594 12.1709 1.22462 12.0744 1.4434 12.0269C1.58745 12.034 1.68179 11.9696 1.72642 11.834C1.75868 11.7532 1.82151 11.7209 1.91509 11.7375C2.05915 11.7446 2.15349 11.6802 2.19811 11.5446C2.23038 11.4637 2.29321 11.4315 2.38679 11.4481C2.53085 11.4552 2.62519 11.3908 2.66981 11.2552C2.81387 11.2622 2.90821 11.1979 2.95283 11.0622C2.98509 10.9814 3.04792 10.9492 3.14151 10.9658C3.28557 10.9728 3.37991 10.9085 3.42453 10.7728C3.45679 10.692 3.51962 10.6598 3.61321 10.6764C3.75726 10.6834 3.8516 10.6191 3.89623 10.4834C3.92849 10.4026 3.99132 10.3704 4.08491 10.387C4.22896 10.394 4.3233 10.3297 4.36792 10.194C4.54113 9.9926 4.76123 9.86401 5.0283 9.80816C5.17236 9.8152 5.2667 9.75085 5.31132 9.61522C5.34358 9.53438 5.40641 9.50216 5.5 9.51875C5.64406 9.52579 5.7384 9.46145 5.78302 9.32581C5.81528 9.24497 5.87811 9.21275 5.9717 9.22934C6.11575 9.23639 6.21009 9.17204 6.25472 9.03641C6.35038 8.92315 6.47613 8.8589 6.63208 8.84347C6.77613 8.85051 6.87047 8.78617 6.91509 8.65053C6.94736 8.56969 7.01019 8.53747 7.10377 8.55406C7.24783 8.56111 7.34217 8.49676 7.38679 8.36113C7.41906 8.28029 7.48189 8.24807 7.57547 8.26466C7.71953 8.2717 7.81387 8.20736 7.85849 8.07172C7.89075 7.99088 7.95358 7.95866 8.04717 7.97525C8.19123 7.98229 8.28557 7.91795 8.33019 7.78232C8.36245 7.70147 8.42528 7.66925 8.51887 7.68585C8.66292 7.69289 8.75726 7.62854 8.80189 7.49291C8.83415 7.41207 8.89698 7.37985 8.99057 7.39644C9.13462 7.40348 9.22896 7.33914 9.27358 7.2035C9.30585 7.12266 9.36868 7.09044 9.46226 7.10704C9.60632 7.11408 9.70066 7.04973 9.74528 6.9141C9.77755 6.83326 9.84038 6.80104 9.93396 6.81763C10.078 6.82467 10.1724 6.76033 10.217 6.62469C10.2492 6.54385 10.3121 6.51163 10.4057 6.52822C10.5497 6.53527 10.6441 6.47092 10.6887 6.33529C10.7209 6.25445 10.7838 6.22223 10.8774 6.23882C11.0214 6.24586 11.1158 6.18152 11.1604 6.04588C11.1926 5.96504 11.2555 5.93282 11.3491 5.94941C11.4931 5.95645 11.5875 5.89211 11.6321 5.75648C11.6643 5.67563 11.7272 5.64341 11.8208 5.66001C11.9648 5.66705 12.0591 5.6027 12.1038 5.46707C12.136 5.38623 12.1989 5.35401 12.2925 5.3706C12.4365 5.37764 12.5308 5.3133 12.5755 5.17766C12.6077 5.09682 12.6706 5.0646 12.7642 5.0812C12.9082 5.08824 13.0025 5.02389 13.0472 4.88826C13.0794 4.80742 13.1423 4.7752 13.2358 4.79179C13.3799 4.79883 13.4742 4.73449 13.5189 4.59885C13.5511 4.51799 13.614 4.48583 13.7075 4.50238C13.9126 4.4783 14.0699 4.38183 14.1792 4.21298C14.3233 4.22002 14.4176 4.15571 14.4623 4.02004C14.4945 3.93918 14.5574 3.90702 14.6509 3.92357C14.856 3.89948 15.0133 3.80302 15.1226 3.63417C15.2667 3.64121 15.361 3.57689 15.4057 3.44123C15.4379 3.36037 15.5008 3.32821 15.5943 3.34476C15.7384 3.3518 15.8327 3.28749 15.8774 3.15182C15.9096 3.07096 15.9725 3.0388 16.066 3.05536C16.2101 3.0624 16.3044 2.99808 16.3491 2.86242C16.3813 2.78156 16.4441 2.7494 16.5377 2.76595C16.7428 2.74186 16.9001 2.64539 17.0094 2.47654C17.1535 2.48359 17.2478 2.41927 17.2925 2.28361C17.3247 2.20275 17.3875 2.17058 17.4811 2.18714C17.6252 2.19418 17.7195 2.12987 17.7642 1.9942C17.8598 1.88098 17.9856 1.81666 18.1415 1.80126C18.2856 1.80831 18.3799 1.74399 18.4245 1.60833C18.4568 1.52747 18.5196 1.4953 18.6132 1.51186C18.7573 1.5189 18.8516 1.45459 18.8962 1.31892C18.9285 1.23806 18.9913 1.2059 19.0849 1.22245C19.229 1.2295 19.3233 1.16518 19.3679 1.02952C19.4002 0.948656 19.463 0.916493 19.5566 0.933047C19.7007 0.94009 19.795 0.875774 19.8396 0.74011C19.8719 0.65925 19.9347 0.627088 20.0283 0.643642C20.1842 0.628245 20.31 0.56393 20.4057 0.450705C20.8425 0.380331 21.2827 0.348178 21.7264 0.354236Z" fill="#852236"/>
</svg>
